<svg width="10" height="10" viewBox="0 0 10 10" fill="none" xmlns="http://www.w3.org/2000/svg">
<path fill-rule="evenodd" clip-rule="evenodd" d="M5.19349 1.089C5.11504 0.931278 5.04305 0.847892 4.99885 0.808973C4.95389 0.847999 4.88054 0.931987 4.80042 1.09125C4.80032 1.09144 4.80023 1.09162 4.80013 1.09181L3.92194 2.8482C3.79466 3.10629 3.59186 3.31166 3.39859 3.45496C3.20443 3.59893 2.95019 3.73193 2.67058 3.77941L2.66794 3.77986L1.07332 4.0448C0.901428 4.07344 0.805245 4.11869 0.760415 4.14806C0.77983 4.19822 0.83191 4.29123 0.955346 4.41467L2.19535 5.65467C2.41274 5.87206 2.54714 6.14943 2.61918 6.4011C2.69132 6.65311 2.72333 6.95748 2.65686 7.25403L2.65575 7.259L2.30073 8.79399C2.25754 8.98065 2.25095 9.11164 2.25673 9.19431C2.33772 9.17471 2.4613 9.12851 2.62725 9.03003L2.62796 9.02961L4.12784 8.14172C4.4063 7.97971 4.72437 7.92 5.00189 7.92C5.27873 7.92 5.59842 7.97948 5.87737 8.14478L7.37146 9.02925C7.53772 9.12745 7.66186 9.17423 7.74388 9.19445C7.74921 9.11088 7.7421 8.97973 7.6992 8.79354C7.69919 8.7935 7.69921 8.79358 7.6992 8.79354L7.34316 7.25404C7.27669 6.95748 7.30871 6.65311 7.38085 6.40109C7.45289 6.14943 7.58729 5.87206 7.80469 5.65467L9.0465 4.41286C9.16945 4.29074 9.22169 4.19866 9.24141 4.1488C9.19609 4.11907 9.09922 4.07354 8.92672 4.0448L7.33209 3.77986C7.05074 3.73297 6.79461 3.60073 6.59847 3.456C6.4036 3.31221 6.20046 3.1065 6.07306 2.84815L5.19349 1.089ZM6.74502 2.515C6.86502 2.76 7.18502 2.995 7.45502 3.04L9.05002 3.305C10.07 3.475 10.31 4.215 9.57502 4.945L8.33502 6.185C8.12502 6.395 8.01002 6.8 8.07502 7.09L8.43002 8.625C8.71002 9.84 8.06502 10.31 6.99002 9.675L5.49502 8.79C5.22502 8.63 4.78002 8.63 4.50502 8.79L3.01002 9.675C1.94002 10.31 1.29002 9.835 1.57002 8.625L1.92502 7.09C1.99002 6.8 1.87502 6.395 1.66502 6.185L0.425016 4.945C-0.304985 4.215 -0.0699843 3.475 0.950016 3.305L2.54502 3.04C2.81002 2.995 3.13002 2.76 3.25002 2.515L4.13002 0.755C4.61002 -0.2 5.39002 -0.2 5.86502 0.755L6.74502 2.515ZM9.26968 4.17107C9.26967 4.17107 9.26947 4.17085 9.26911 4.17041L9.26968 4.17107ZM9.25164 4.11511C9.25167 4.11466 9.2517 4.11442 9.25171 4.11442L9.25164 4.11511ZM0.750506 4.11403C0.750517 4.11403 0.750552 4.11431 0.750579 4.11487L0.750506 4.11403ZM0.733069 4.16934C0.73275 4.16974 0.732571 4.16994 0.73256 4.16994L0.733069 4.16934ZM5.0344 0.783315C5.0344 0.783324 5.03416 0.783441 5.0337 0.78363L5.0344 0.783315ZM4.96409 0.783324C4.96375 0.78318 4.96358 0.783097 4.96358 0.78309L4.96409 0.783324Z" fill="url(#paint0_linear_81_472)"/>
<defs>
<linearGradient id="paint0_linear_81_472" x1="0.00152" y1="4.99698" x2="10.0065" y2="4.99698" gradientUnits="userSpaceOnUse">
<stop stop-color="#F26608"/>
<stop offset="1" stop-color="#E01742"/>
<stop offset="1" stop-color="#E01742"/>
</linearGradient>
</defs>
</svg>
