<svg width="10" height="10" viewBox="0 0 10 10" fill="none" xmlns="http://www.w3.org/2000/svg">
<path d="M5.14819 8.93193L5.14818 8.9319L5.14331 8.93362C5.12847 8.93886 5.07648 8.95011 4.99973 8.95011C4.92297 8.95011 4.87098 8.93886 4.85614 8.93362L4.85615 8.93359L4.85126 8.93193C4.19802 8.70892 3.09344 8.11038 2.1588 7.15275C1.23018 6.2013 0.499725 4.92879 0.499725 3.34511C0.499725 2.07392 1.5232 1.05011 2.77973 1.05011C3.52404 1.05011 4.18309 1.40911 4.59831 1.96822C4.69264 2.09524 4.84152 2.17011 4.99973 2.17011C5.15794 2.17011 5.30681 2.09524 5.40114 1.96822C5.81605 1.40952 6.47992 1.05011 7.21973 1.05011C8.47625 1.05011 9.49973 2.07392 9.49973 3.34511C9.49973 4.92879 8.76927 6.2013 7.84065 7.15276C6.90601 8.11038 5.80143 8.70892 5.14819 8.93193Z" stroke="url(#paint0_linear_81_454)" stroke-linecap="round" stroke-linejoin="round"/>
<defs>
<linearGradient id="paint0_linear_81_454" x1="0.000695915" y1="4.99891" x2="10.0045" y2="4.99891" gradientUnits="userSpaceOnUse">
<stop stop-color="#F26608"/>
<stop offset="1" stop-color="#E01742"/>
<stop offset="1" stop-color="#E01742"/>
</linearGradient>
</defs>
</svg>
