<svg width="10" height="10" viewBox="0 0 10 10" fill="none" xmlns="http://www.w3.org/2000/svg">
<path d="M5.86495 0.755007L6.74495 2.51501C6.86495 2.76001 7.18495 2.99501 7.45495 3.04001L9.04995 3.30501C10.07 3.47501 10.31 4.21501 9.57495 4.94501L8.33495 6.18501C8.12495 6.39501 8.00995 6.80001 8.07495 7.09001L8.42995 8.62501C8.70995 9.84001 8.06495 10.31 6.98995 9.67501L5.49495 8.79001C5.22495 8.63001 4.77995 8.63001 4.50495 8.79001L3.00995 9.67501C1.93995 10.31 1.28995 9.83501 1.56995 8.62501L1.92495 7.09001C1.98995 6.80001 1.87495 6.39501 1.66495 6.18501L0.424955 4.94501C-0.305046 4.21501 -0.0700454 3.47501 0.949955 3.30501L2.54495 3.04001C2.80995 2.99501 3.12995 2.76001 3.24995 2.51501L4.12995 0.755007C4.60995 -0.199993 5.38995 -0.199993 5.86495 0.755007Z" fill="url(#paint0_linear_81_460)"/>
<defs>
<linearGradient id="paint0_linear_81_460" x1="0.00145896" y1="4.99698" x2="10.0064" y2="4.99698" gradientUnits="userSpaceOnUse">
<stop stop-color="#F26608"/>
<stop offset="1" stop-color="#E01742"/>
<stop offset="1" stop-color="#E01742"/>
</linearGradient>
</defs>
</svg>
